<?xml version="1.0" encoding="utf-8"?>
<!-- Generator: Adobe Illustrator 21.0.0, SVG Export Plug-In . SVG Version: 6.00 Build 0)  -->
<svg version="1.1" id="Vrstva_1" xmlns="http://www.w3.org/2000/svg" xmlns:xlink="http://www.w3.org/1999/xlink" x="0px" y="0px"
	 viewBox="0 0 841.9 595.3" style="enable-background:new 0 0 841.9 595.3;" xml:space="preserve">
<style type="text/css">
	.st0{fill:#FFFFFF;}
	.st1{fill-rule:evenodd;clip-rule:evenodd;fill:#FFFFFF;}
</style>
<g id="Vrstva_2">
	<rect x="-0.7" y="0" width="843.3" height="595.3"/>
</g>
<g id="O_2_">
	<g>
		<path class="st0" d="M535.3,83.7C520,68,504.7,59.5,495,55.1c-14.6-6.6-27.1-9.1-34.1-10.4c-13.6-2.5-24.1-2.7-32.8-2.8
			c-17.8-0.2-31.7,1.8-38.9,3c-8.2,1.4-14.3,3-16.4,3.5c-11.8,3.1-20.7,6.6-24.7,8.3c-4.8,2-9.9,4.2-16,7.7
			c-6,3.5-14.5,9.3-23.3,18.4c-4.8-2-9.2-3.2-12.5-3.9c-7.8-1.6-13.9-1.5-15.7-1.4c-3.8,0.1-7.1,0.7-8.3,0.8
			c-1.3,0.2-2.7,0.5-4.2,0.8c-2.5,0.6-6.8,1.6-12.2,4c-1.2,0.6-5,2.3-9.4,5.4c-2,1.4-4.9,3.5-8.3,6.9c-0.9,0.9-3.5,3.7-6.2,7.6
			c-1.9,2.9-4.2,7-4.3,7c-3.7,6.8-6.5,12.7-8.6,17.4c-2.1,4.7-3.9,8.9-5.8,14.8c-1.8,5.5-2.8,10-3.5,12.8c-0.3,1.5-1.3,5.9-2.3,11.7
			c-1,6.4-1.5,11.4-1.9,16c-0.1,1-0.4,4.4-0.7,9c-0.6,9-0.7,15.9-0.7,18c0,1.9-0.1,9.4,0.5,20.2c0.5,9.4,1.1,21.9,3.6,38
			c1.5,9.7,3.1,16.9,3.6,18.8c3.1,13.5,6.4,23.2,7.2,25.4c1.9,5.3,4.2,11.9,8.2,20.3c6.1,12.7,12.4,21.5,14.6,24.5
			c1.4,1.9,6.2,8.4,13.7,16.2c1.7,1.7,9.7,9.9,21.9,19.1c7.9,5.9,14.3,9.8,16.6,11.1c4.1,2.4,9.6,5.6,17.2,8.9
			c6.9,2.9,12.5,4.6,16.1,5.7c5.1,1.5,8.8,2.3,13.7,3.5c4.8,1.1,11.2,2.5,19.7,3.7c5,0.7,9.3,1.2,12.5,1.4
			c18.2,6.5,39.6,11.2,63.3,11.2c106.3,0,192.8-86.5,192.8-192.8C629.5,170.3,586.8,115.4,535.3,83.7z M436.7,368.6
			c-46.8,0-79.9-29.2-83.5-32.5c-6.7-6.2-40.4-39.7-40-90.8c0.4-58.9,46.4-105.3,89.4-119c15.3-4.9,28-5,32.8-4.8
			c51.1,2.1,124.9,47.3,124.9,123.6C560.3,313.2,504.9,368.6,436.7,368.6z"/>
	</g>
</g>
<path class="st1" d="M481.4,193.7c-0.4-0.5-1.4-0.2-1.5-0.6c-0.1-0.4,1-0.7,1.4-1.7c0.3-0.8,0-1.5,0-2.2c-0.4-3.1-2.9-8.4-2.9-8.4
	c-2.3-4.4-3.5-6.6-5.4-8.7c-3.9-4.2-8.2-6-11-7.1c-13.2-5.3-29.6-2.1-33.2-1.4c-1.1,0.8-2.7,1.9-4.9,2.9c-3.9,1.8-6.8,2.2-8.8,2.7
	c-8.3,2-13.9,8.5-15.6,10.6c-1.8,2.1-3.5,5.3-6.8,11.7c-2,3.8-3.2,6.5-4.2,9.6c-1.5,4.4-2.6,9.6-1.6,10c0.9,0.4,2.7-3.4,3.9-3
	c1,0.3,0.9,3.8,0.4,7.5c0.8,7.3,2,8.8,3,8.9c1.4,0.2,2.5-3,4-2.9c1.8,0.1,2.9,4.6,3.6,8.2c6,0.7,9.6,2.4,11.9,3.9
	c1,0.7,3.2,2.3,5.8,1.9c1.2-0.2,2.2-0.8,2.8-1.2c4.5,1.2,8.9,2.4,13.4,3.7c0,0,0,0,0,0c-5.3,4.5-10.6,9-16,13.4
	c-0.3,0.7-0.8,1.9-1.2,3.3c-1.9,6.1-0.7,8.4-1.2,16.4c-0.5,6.7-1.9,12.7-2.5,15.1c-0.6,2.3-0.8,2.3-2.9,15.6
	c-2,12.8-2.9,16.1-3.3,20c-0.9,9.1,0.6,7.5-0.3,15.4c-0.8,6.9-1.1,10.3,0.6,12.3c1.6,1.8,4.3,2,5.2,2.1c3,0.2,4.8-1.2,8.3-0.5
	c0.8,0.2,1.5,0.4,1.9,0.6c0.2,5.3,0,9.7-0.1,12.7c-0.4,8-1.3,13.4-0.1,21.4c0.2,1.4,0.5,2.5,0.6,3.3c1.2,4.3,2.4,9.2,3.1,14.5
	c1.8,12.5,1.3,23.5,0.1,32c0.7,29.7,1.3,59.3,2,89c0,13.5,0,26.9,0,40.4c5.1,4.5,12.5,10.4,15.2,8.9c0.7-0.4,0.8-1.1,1-1.5
	c4-7.3,1.8-15.5,1.8-15.5c-0.6-5.5-0.8-12.4-1.1-26c0,0-0.1-3.2-0.1-8.5c0-21.4,5.1-63.2,8.1-93c0.7-6.9,1.6-19.9,3.5-45.8
	c0.9-12.6,1.6-22.6,0.7-29.6c-0.2-1.3-0.6-4.2-0.4-8.1c0.1-2.4,0.4-3.7,1.3-9.8c0.3-2.1,0.6-4.2,0.9-6.3c2.1-14-0.7-43.4-0.7-43.4
	c-1.7-17.5-2.9-30-3.5-36.5c-2.1-8.4-4.8-10.8-7-11.3c4-1.4,7.2-3,9.4-4.2c2.3-1.3,4.2-2.4,6.4-4.3c2.4-2.2,3.6-4.1,5.9-7.8
	c4.6-7.3,6.8-10.9,7.1-15.4c0.2-2.8-0.4-4,0.5-6.4C480,197.2,482.1,194.6,481.4,193.7z"/>
</svg>
