<?xml version="1.0" encoding="utf-8"?>
<!-- Generator: Adobe Illustrator 21.0.0, SVG Export Plug-In . SVG Version: 6.00 Build 0)  -->
<svg version="1.1" id="ALONE_CONCEPT" xmlns="http://www.w3.org/2000/svg" xmlns:xlink="http://www.w3.org/1999/xlink" x="0px"
	 y="0px" viewBox="0 0 841.9 595.3" style="enable-background:new 0 0 841.9 595.3;" xml:space="preserve">
<style type="text/css">
	.st0{fill-rule:evenodd;clip-rule:evenodd;}
</style>
<g id="CONCEPT">
	<path d="M725.2,470.5c0-0.9,0.5-1.4,1.4-1.4h13.6c0.9,0,1.4,0.5,1.4,1.4c0,0.9-0.5,1.4-1.4,1.4h-5.4v23.1c0,0.9-0.5,1.4-1.4,1.4
		s-1.4-0.5-1.4-1.4v-23.1h-5.4C725.6,471.8,725.2,471.4,725.2,470.5z"/>
	<path d="M679.6,469.1h6.8c2.3,0,4.2,0.8,5.8,2.4c1.6,1.6,2.4,3.5,2.4,5.8c0,2.4-0.8,4.4-2.3,5.9c-1.5,1.5-3.5,2.3-5.9,2.3h-5.4v9.5
		c0,0.9-0.5,1.4-1.4,1.4c-0.9,0-1.4-0.5-1.4-1.4v-24.4C678.2,469.6,678.7,469.1,679.6,469.1z M680.9,471.8v10.8h5.4
		c1.5,0,2.8-0.5,3.9-1.6c1-1,1.6-2.3,1.6-3.9c0-1.5-0.5-2.8-1.6-3.9c-1-1-2.3-1.6-3.9-1.6H680.9z"/>
	<path d="M634,494.9v-24.4c0-0.9,0.5-1.4,1.4-1.4h10.8c0.9,0,1.4,0.5,1.4,1.4c0,0.9-0.5,1.4-1.4,1.4h-9.5v8.1h6.8
		c0.9,0,1.4,0.5,1.4,1.4c0,0.9-0.5,1.4-1.4,1.4h-6.8v10.8h9.5c0.9,0,1.4,0.5,1.4,1.4c0,0.9-0.5,1.4-1.4,1.4h-10.8
		C634.4,496.2,634,495.8,634,494.9z"/>
	<path d="M602,469.1c0.9,0,1.4,0.5,1.4,1.4c0,0.9-0.5,1.4-1.4,1.4h-5.4c-1.1,0-2.1,0.4-2.9,1.2c-0.8,0.8-1.2,1.8-1.2,2.9v13.6
		c0,1.1,0.4,2.1,1.2,2.9c0.8,0.8,1.8,1.2,2.9,1.2h5.4c0.9,0,1.4,0.5,1.4,1.4c0,0.9-0.5,1.4-1.4,1.4h-5.4c-1.9,0-3.5-0.7-4.8-2
		c-1.3-1.3-2-2.9-2-4.8v-13.6c0-1.9,0.7-3.5,2-4.8c1.3-1.3,2.9-2,4.8-2H602z"/>
	<path d="M556.4,489.6v-19.2c0-0.9,0.5-1.4,1.4-1.4c0.9,0,1.4,0.5,1.4,1.4v24.4c0,0.9-0.5,1.4-1.4,1.4c-0.5,0-0.9-0.2-1.2-0.7
		l-11-19.9v19.2c0,0.9-0.5,1.4-1.4,1.4c-0.9,0-1.4-0.5-1.4-1.4v-24.4c0-0.9,0.5-1.4,1.4-1.4c0.5,0,1,0.3,1.3,0.8L556.4,489.6z"/>
	<path d="M512.1,488.1c0,2.2-0.8,4.2-2.4,5.8s-3.5,2.4-5.8,2.4s-4.2-0.8-5.8-2.4c-1.6-1.6-2.4-3.5-2.4-5.8v-10.8
		c0-2.2,0.8-4.2,2.4-5.8c1.6-1.6,3.5-2.4,5.8-2.4c2.3,0,4.2,0.8,5.8,2.4c1.6,1.6,2.4,3.5,2.4,5.8V488.1z M509.4,488.1v-10.8
		c0-1.5-0.5-2.8-1.6-3.9c-1-1-2.3-1.6-3.9-1.6s-2.8,0.5-3.9,1.6c-1,1-1.6,2.3-1.6,3.9v10.8c0,1.5,0.5,2.8,1.6,3.9
		c1,1,2.3,1.6,3.9,1.6s2.8-0.5,3.9-1.6C508.9,490.9,509.4,489.6,509.4,488.1z"/>
	<path d="M463.8,469.1c0.9,0,1.4,0.5,1.4,1.4c0,0.9-0.5,1.4-1.4,1.4h-5.4c-1.1,0-2.1,0.4-2.9,1.2c-0.8,0.8-1.2,1.8-1.2,2.9v13.6
		c0,1.1,0.4,2.1,1.2,2.9c0.8,0.8,1.8,1.2,2.9,1.2h5.4c0.9,0,1.4,0.5,1.4,1.4c0,0.9-0.5,1.4-1.4,1.4h-5.4c-1.9,0-3.5-0.7-4.8-2
		s-2-2.9-2-4.8v-13.6c0-1.9,0.7-3.5,2-4.8c1.3-1.3,2.9-2,4.8-2H463.8z"/>
</g>
<path id="_x2D__2_" d="M741.2,551.3c-199.7,4.7-295.3,8.4-345.5,11c-8.3,0.4-49.1,2.6-103.9,5.4c-27.3,1.4-60.1,3.1-99.6,5
	c-67.6,3.4-123.4,6.1-160.9,7.9c-0.5-0.3-1.2-0.7-1.9-1.3c-1.5-1.3-2.1-2.8-2.5-3.6c-0.6-1.5-0.7-2.7-0.9-5.1
	c-0.1-0.9-0.1-1.9,0.2-3.1c0,0,0,0,0-0.1c0.2-0.7,0.9-1.8,3.5-2.9c237.1-5.8,474.3-11.6,711.4-17.3
	C741.2,548.6,741.2,550,741.2,551.3z"/>
<g id="Vrstva_4">
	<path class="st0" d="M641.2,96.6c-0.2-0.2-0.5-0.5-0.9-0.7c-0.4-0.2-0.9-0.4-1.9-0.5c-1.3-0.1-2.5,0.2-3.4,0.5
		c-1.8,0.8-3.6,1.5-5.4,2.3c-2.6,1.1-5.1,2.1-7.6,3.1c-1.7,0.6-4.2,1.4-7.3,2.3c-3.2,1-4.7,1.3-7.1,2c-2.4,0.7-5.9,1.8-10,3.4
		c-5.2,1.9-10.4,3.8-15.7,5.8c-3.3,1.3-6.7,2.6-9.9,3.9c-2.4,0.9-5,1.9-7.6,2.8c-2.4,0.8-4.8,1.6-7.1,2.3c-0.1-3.1-0.2-6.3-0.3-9.4
		c-0.2-6.9-0.5-13.6-0.8-20.3c-0.2-4.5-0.4-9.1-0.7-13.7c-0.4-7.2-1-14.3-1.6-21.2c-0.7-5.8-1.4-11.6-2.1-17.4
		c-0.1-3.2-0.1-5.7-0.2-7.4c-0.1-4.6-0.1-5.8-0.4-7.8c-0.3-1.9-0.5-2.1-0.9-4.4c-0.1-0.7-0.2-1.8-0.7-3.2c-0.2-0.6-0.4-1.1-0.5-1.4
		c-0.1-0.2-0.2-0.6-0.5-0.9c-0.3-0.4-0.6-0.7-0.9-0.8c-0.5-0.4-1.1-0.8-1.9-1.1c-1-0.5-2-0.7-2.7-0.9c-0.3,0-0.8,0-1.2,0.2
		c-0.4,0.1-0.8,0.3-1,0.5c-0.2,0.2-0.5,0.5-0.8,0.9c-0.4,0.7-0.5,1.3-0.6,1.7c-0.1,0.8-0.1,1.4,0,2.4c0.1,0.6,0.2,1.4,0.4,2.3
		c0.1,0.9,0.2,2.3,0.2,4.1c0,1.6-0.1,2.5-0.2,3.7c-0.1,1.4-0.1,3.5,0,6.2c0,0.8,0.1,2,0.3,3.5c0.3,2.9,0.8,5.1,0.9,5.6
		c0.5,2.4,1.4,8,2.9,21.2c0.9,10.7,1.9,21.5,2.8,32.2c0.3,3.5,0.5,7,0.8,10.6c0.4,6.1,0.8,12.2,1.1,18.1c-4.6,1.7-9.3,3.4-13.9,5.2
		c-21.3,8.1-41.9,16.5-61.7,25.1c-9,4.6-16.4,8-21.5,10.2c-8.2,3.6-12.9,5.3-25.9,10.6c-8.6,3.5-15.6,6.4-20,8.3
		c-23.7,8.9-38.2,14.8-47.3,18.6c-2.3,1-10.1,4.3-20.8,8.6c-6.8,2.8-12.5,5-16.3,6.4c-7.6,2.6-13.6,4.9-17.5,6.5
		c-6,2.4-9.4,4.1-19.5,8.5c-6.7,2.9-12.1,5.3-15.4,6.7c-5.2,2.1-10.4,4.1-15.6,6.2c-0.5,0.1-1,0.2-1.6,0.4c-0.9,0.6-1.7,1.1-2.3,1.4
		c-1.1,0.7-1.8,1.1-2.8,1.5c-1,0.4-1.8,0.7-2.5,0.8c0.2-1.1,0.4-2.5,0.4-4c0-1.3-0.1-2.5-0.2-3.5c-0.1-3.2-0.2-6.4-0.3-9.5
		c0-0.5,0-1.4,0.1-2.4c0.2-3.4,0.5-5.9,0.6-6.6c0.4-3,0.7-7.6,1.4-16.8c0.7-10.3,0.8-14.3,0.7-17.5c0-1.8-0.1-3.3-0.1-4.4
		c0.2-0.7,0.3-1.5,0.4-2.2c0.5-2.8,0.6-5.5,0.5-7.8c0-5.4-0.3-9.8-0.6-12.9c-0.3-4-1.1-10.3-1.1-10.4c-0.2-0.4-0.4-0.8-0.6-1.2
		c-0.2-0.5-0.5-1-0.7-1.5c-0.1-0.2-0.4-0.6-0.7-0.9c-0.3-0.3-0.6-0.4-0.8-0.5c-0.4-0.1-1-0.3-1.6-0.3c-1.2-0.1-2.2,0.3-2.7,0.5
		c-1.3,1-2.6,1.9-4,2.9c-0.4,0.3-0.9,0.6-1.3,1c-0.3,0.9-0.5,1.9-0.8,2.8c0,1.1,0,2.2,0,3.4c-0.3,1.9-0.5,3.8-0.8,5.7
		c-0.5,2.9-0.9,5.8-1.4,8.8c-0.1,0.8-0.2,1.6-0.3,2.6c0,1.1,0,2,0.1,2.9c-0.1,1.3-0.3,2.7-0.4,4c0,0.4,0.1,0.9,0.4,1.4
		c0.2,0.4,0.4,0.6,0.5,0.9c0.1,0.1,0.4,0.4,0.9,0.5c0.3,0.1,0.6,0.1,0.8,0c0.6-0.1,1.2-0.2,1.8-0.2c0.1,0.1,0.3,0.2,0.4,0.2
		c-0.1,2.6-0.2,5.3-0.4,7.9c0,0.9-0.1,1.7-0.1,2.6c0.2,0.3,0.4,0.6,0.7,0.9c0.3,1.6,0.6,3.3,1,4.9c0.1,0.7,0.3,1.4,0.4,2.1
		c0.1,0.8,0.2,1.6,0.2,2.3c0,2,0.1,4.1,0.1,6.1l-0.7,4.8c0,3.2,0,6.4,0,9.7c0,3.5,0.1,7,0.1,10.6c0,5.1,0,10.1,0,15.2
		c-3.7,1.5-7.5,3-11.5,4.5c-4.9,1.9-9.8,3.6-14.5,5.1c-3.6,1.2-7.2,2.4-10.8,3.7c-4.4,1.5-8.7,3.1-12.9,4.7c-4,1.6-8.1,3.2-12.2,4.9
		c-3.4,1.4-6.7,2.8-9.9,4.2c-2.1,1-4.3,2.1-6.7,3c-1.3,0.6-2.6,1.1-3.9,1.6c-2.5,1-5.1,2-7.8,3c-2.3,0.8-4.5,1.5-6.6,2.2
		c-6.3,1.9-12.5,3.9-18.8,5.8c-1.4,0.5-2.8,1-4.2,1.5c-1.5,0.6-2.9,1.1-4.3,1.7c-0.6,0.2-1.3,0.5-2.2,0.8c-1.1,0.4-1.5,0.6-2.3,0.9
		c-0.1,0-1.1,0.4-2.3,0.7c-1.5,0.3-2.8,0.5-3.9,0.5c-0.7,0-2.5,0.2-4.2,1.4c-2.2,1.6-2.9,3.8-3.1,4.4c0,0.5-0.1,1.5,0.5,2.6
		c0.4,0.8,1,1.4,1.3,1.6c0.5,0.2,1.1,0.4,1.8,0.5c1.8,0.2,3.2-0.2,4.1-0.5c2.7-0.7,5-1.2,6.5-1.5c1.4-0.3,2.5-0.6,4.1-1
		c1.7-0.4,3.1-0.9,4.1-1.2c3.7-1.2,6.7-2.2,8.7-3c1.3-0.5,2.6-0.9,8.1-3c3.3-1.2,5.9-2.3,7.8-3c8-3,16.1-6.1,24.1-9.1
		c8.9-3.4,17.8-6.8,26.7-10.2c6.9-2.6,13.8-5.2,20.8-7.9c7.1-2.7,14.2-5.5,21.3-8.2c-0.4,4.9-0.8,9.8-1.2,14.8
		c-0.6,8-1.2,15.9-1.7,23.8c-0.9,10.4-1.4,19-1.8,25.4c-0.3,5.8,0,11.1-0.7,14c-2,8.5-1.4,12.5-0.5,15.3c2,6.6-0.6,13.9-0.9,20.8
		c2-4.2,5.7-15.9,8.5-24.2c1.5-11.6,2.9-23.9,3.3-39.3c0.1-3.6,0.6-7.1,0.9-10.7c0.7-8.5,1.5-17,2.1-25.5c0.4-5.5,0.9-11,1.3-16.5
		c0.2-0.3,0.4-0.6,0.6-0.9c2.6-1,5.3-2.1,8-3.2c2.4-1,4.7-1.9,7-2.9c8.7-3.8,17.3-7.5,26-11.3c1.7-0.6,4.4-1.6,7.6-2.8
		c4.3-1.5,5.9-2,8.9-3.1c2-0.7,4.9-1.9,8.4-3.4c1.7-0.9,3.6-1.9,5.8-2.8c2.3-1,4.6-1.8,6.6-2.4c1.4-0.3,3.3-0.6,5.6-0.5
		c2,0.1,3.6,0.5,4.8,0.9c0.4-0.4,1.5-1.4,1.9-3.1c0.3-1.3,0.1-2.5,0-3c13.3-5.1,26.6-10.2,39.9-15.3c2.1-0.8,5.6-2,9.9-3.7
		c8-3.2,13.7-5.9,15.4-6.7c6.2-2.9,19.6-8.8,51.5-22c23-9.4,46-18.7,69-28.1c9.5-3.9,19.1-7.8,28.6-11.7c0.1,10,0.4,18.1,0.6,23.7
		c0.2,4.8,0.3,8.2,0.5,13.8c0.2,7.1,0.2,12.9,0.1,16.7c0,13.2,0,26.5,0,39.7c0.1,13.6,0.1,27.2,0.2,40.8c0.1,10.9,0.1,22,0,33.3
		c-0.1,7.6-0.2,15.2-0.4,22.7c0.8,0.2,1.9,0.5,3.1,1.2c1.9,1.1,3,2.4,3.6,3.3c-0.1-1.7-0.1-4.2-0.2-7.2c-0.1-5.9,0-11.7,0.2-17.2
		c0.3-9.4,0.6-18.8,0.9-28.1c0.1-7.2,0.1-14.4,0.2-21.6c0.1-17,0.1-34,0-51c0-3.8,0-7.6-0.1-11.3c0-4.1,0.1-10.3,0.1-17.9
		c0-14.3,0-23.5,0-26c0-4.8-0.1-11.2-0.1-18.6c11.6-4.6,23.2-9.2,34.8-13.8c5.3-2.1,10.8-4.2,16.3-6.3c2.9-1.1,5.7-2.1,8.5-3.1
		c5-2,10.1-3.9,15.1-5.9c1.3-0.6,2.6-1.3,3.9-2c1.2-0.7,2.4-1.4,3.5-2c0.1-0.1,1.4-0.7,1.7-2.1C641.5,97.5,641.3,96.9,641.2,96.6z"
		/>
	<path class="st0" d="M234.2,449c-3,0.3-5.4-0.1-7.2-0.5c-0.8-0.2-3.2-0.6-6.1-1.8c-0.5,4.8-1,9.6-1.5,14.5
		c-0.6,5.7-1.1,11.3-1.6,16.9c-0.7,11.3-1.5,22.6-2.2,33.9c0.1,2.1,0.1,4.2,0,6.5c-0.1,3.3-0.2,5.2-0.3,5.7
		c-0.1,1.1-0.3,2.5-0.7,5.2c-0.3,2.5-0.4,2.8-0.7,5c-0.2,1.2-0.3,2.6-0.5,4.4c-0.2,1.5-0.3,3.2-0.5,5.1c-0.1,1.1-0.2,2.2-0.2,3.4
		c0,1.4,0,2.6,0.1,3.8c0,0.6,0.1,2.1,1.1,3.6c1.1,1.5,2.5,2.1,3,2.3c0.5,0,1.4-0.1,2.5-0.6c0.4-0.2,1.3-0.8,1.9-1.9
		c0.1-0.1,0.2-0.3,0.5-1.7c0.3-1.3,0.3-1.7,0.6-2.8c0.3-1.5,0.4-1.4,0.6-2.6c0.2-1,0.3-1.9,0.4-2.3c0.1-0.6,0.1-1,0.2-1.4
		c0.2-3.2,0.4-6.4,0.5-9.7c0.1-2.8,0.2-5.5,0.3-8.1c0.5-8.5,1-17,1.5-25.5c0.2-4.6,0.5-8.4,0.7-11c0.1-1,0.2-1.7,1.1-9.5
		c0-0.3,0.6-5.1,0.6-5.4c0.9-8.4,1.8-16.7,2.8-25.1c0.3-0.1,0.9-0.3,1.5-0.4C233.6,449.1,234.1,449.2,234.2,449
		C234.2,449,234.2,449,234.2,449z"/>
</g>
<g id="E_1_">
	<path class="st0" d="M692.7,315.5c-0.3,0-1.3-0.2-2.3,0.5c-0.7,0.4-1,1-1.1,1.3c-0.3,0.5-0.5,1.2-0.6,2c-0.3,2.3,0.9,4,1.3,4.6
		c0.5,0.5,1.2,1.3,2.2,2.1c0.2,0.2,1,0.7,2,1.4c4.8,2.8,10.4,4.2,10.4,4.2c1.6,0.4,3.8,0.8,6.5,1.1c5.4,0.4,13.5,0.7,22.3-0.4
		c5.1-0.7,9.7-1.7,10.8-2c3.3-0.8,6.1-1.6,8.4-2.3c4.7-1.6,9.3-3.2,14-4.8c3.4-1.4,6.9-2.7,10.3-4.1c1.9-0.8,3.9-1.6,6-2.5
		c2.8-1.3,5.4-2.6,7.8-3.9c2.3-1.3,4.6-2.5,6.8-3.8c2.2-1.2,4.5-2.6,6.9-4.2c2.4-1.6,4.5-3.2,6.5-4.8c0.3-0.2,0.9-0.8,1.2-1.8
		c0.2-0.5,0.1-1,0.1-1.3c-0.1-0.2-0.3-0.8-0.8-1.1c-0.9-0.7-1.9-0.4-2.1-0.4c-0.9,0.3-1.9,0.5-2.8,0.8c-3,1.3-6.1,2.7-9.1,4
		l-12.2,5.9l-13.8,5.2c-5.1,1.6-10.3,3.3-15.4,4.9c-3.7,1.3-7.7,2.6-11.9,3.7c-2.1,0.6-4.2,1.1-6.2,1.6c-2.7,0.5-5.5,0.9-8.2,1.4
		c-1.3,0.1-2.7,0.2-4.2,0.3c-2.7,0.1-5.2,0-7.5-0.2c-0.8-0.1-1.6-0.2-2.6-0.4c-1-0.2-1.8-0.4-2.6-0.7c-3.3-1-6.7-2.1-10-3.1
		c-1.6-0.5-3.3-1.1-4.9-1.6c-0.8-0.3-1.6-0.6-2.6-0.8C694.3,315.9,693.5,315.7,692.7,315.5z"/>
	<path class="st0" d="M680.6,369.7c-0.4,0.2-0.7,0.4-1,0.7c-0.4,0.3-0.7,0.6-0.7,0.7c-0.2,0.2-0.5,0.5-0.7,0.9
		c-0.2,0.3-0.4,0.8-0.5,1.6c0.2,2.3,1.1,3.5,1.6,4c0.9,1,2,1.4,4,2.1c1.8,0.6,3.9,1.1,3.9,1.1c2.3,0.5,4.5,1.1,6.8,1.6
		c1.8,0.4,4,0.8,6.5,0.9c1.5,0.1,3,0,4.2-0.1c1.2-0.1,2.5-0.3,3.9-0.5c1.1-0.2,2.2-0.4,3.2-0.6c1.3-0.3,2.8-0.7,4.3-1.1
		c1.3-0.4,2.5-0.8,3.6-1.3c1.1-0.4,2.3-1,3.6-1.6c1.3-0.7,2.5-1.4,3.5-2c1.1-0.7,2.3-1.4,3.5-2.2c1-0.6,1.9-1.3,2.7-1.9
		c0.7-0.5,1.4-1.1,2.2-1.7c0.9-0.7,1.7-1.4,2.4-2.1c0.7-0.9,1.5-1.8,2.2-2.7c0.6-1.1,0.8-2.1,0.9-2.7c0.2-1.1,0.4-2.1-0.1-3
		c-0.3-0.6-0.9-1-1.1-1.2c-0.3-0.2-1.1-0.8-2.2-0.6c-0.3,0-0.5,0.1-1,0.3c-0.8,0.3-1.3,0.6-2.4,1.3c-0.3,0.2-0.6,0.4-0.6,0.4
		c-0.1,0-0.1,0.1-0.2,0.1c-0.9,0.6-1.7,1.2-2.6,1.9l-5.8,4.4c-1.4,0.9-3,1.9-4.7,2.8c-1.4,0.8-2.8,1.5-4.2,2c-1.3,0.5-2.8,1-4.6,1.3
		c-1.5,0.3-2.9,0.5-4.2,0.6c-1.3,0-2.7,0-4.3-0.1c-1.9-0.2-3.6-0.5-5.1-0.8c-2.6-0.7-5.3-1.3-7.9-2c-0.9-0.3-1.9-0.5-3-0.6
		c-1.3-0.2-2.5-0.2-3.5-0.2c-0.2,0-0.4,0-0.7,0c-0.3,0-0.6,0.1-0.9,0.1C681.2,369.4,680.9,369.5,680.6,369.7z"/>
	<path class="st0" d="M673.7,337.3c-1,0.1-1.8,0.3-2.5,0.5c-0.5,0.1-1.1,0.3-1.8,0.7c-0.8,0.4-1.8,1-1.8,1l0,0
		c-0.9,0.7-1.8,1.6-2.8,2.6c-1.4,1.4-2.5,2.8-3.4,4.1c-0.8,1.1-1.6,2.3-2.3,3.6c-1.4,2.4-2.5,4.6-3.4,6.7c-1.5,3-2.7,5.6-3.5,7.6
		c-0.9,2.2-2,4.7-3.2,8.2c-1,3.1-1.7,4.9-2.2,7.6c0,0-0.2,0.9-0.9,5.6l0,0c-0.1,1.5-0.2,3.4,0,5.5c0.2,1.8,0.5,3.4,0.8,4.7
		c0.5,1.6,1.2,3.6,2.5,5.8c1.1,1.9,2.3,3.4,3.3,4.6c1.5,1.5,3.4,3.3,5.8,4.9c2.2,1.5,4.3,2.6,6.1,3.4c1.8,0.8,3.8,1.6,6,2.3
		c1.7,0.6,3.4,1,4.9,1.4c1.6,0.4,3.5,0.7,5.5,1c2.1,0.3,4,0.4,5.8,0.4c1.6,0,3.4,0,5.2-0.2c1.8-0.1,3.5-0.3,5-0.5
		c2-0.2,4.1-0.5,6.4-1c2.2-0.4,4.2-0.9,6-1.4c1.8-0.4,3.7-0.9,5.6-1.5c1.7-0.5,3.3-1.1,4.8-1.6c1.4-0.5,2.9-1.1,4.5-1.8
		c1.3-0.6,2.4-1.2,3.5-1.8c0.9-0.6,1.8-1.2,2.7-1.9c0.7-0.5,1.4-1.1,2.1-1.6c0.5-0.4,1-1,1.5-1.8c0.3-0.4,0.4-0.8,0.6-1.2
		c0.1-0.3,0.4-1.2,0-2.1c-0.2-0.5-0.5-0.9-0.8-1.1c-0.2-0.2-0.6-0.4-1.1-0.5c-0.8-0.1-1.4,0.1-1.6,0.2c-1.4,0.5-2.7,0.9-4.1,1.4
		l-11.5,3.8c-3.2,0.8-6.3,1.5-9.5,2.3c-1.8,0.5-3.7,1-5.7,1.4c-2.3,0.5-4.6,0.9-6.7,1.3c-1.2,0.1-2.4,0.1-3.6,0.2
		c-1.5,0-2.9,0.1-4.3,0.1c-1.1,0-2.3-0.1-3.5-0.3c-1.3-0.2-2.6-0.4-3.7-0.7c-1.3-0.3-2.8-0.8-4.3-1.3c-1.5-0.5-2.9-1.1-4.1-1.7
		c-1.2-0.6-2.6-1.4-4.1-2.4c-1.2-0.9-2.3-1.7-3.3-2.6c-0.8-0.7-1.6-1.6-2.5-2.5c-0.8-0.9-1.4-1.7-2-2.5c-0.5-0.8-1.1-1.8-1.5-3.1
		c-0.4-1.1-0.7-2.1-0.8-2.9c-0.1-1.1-0.2-2.5-0.1-3.9c0-1.5,0.2-2.8,0.4-3.9c0.4-2.3,0.9-4.1,1.3-5.5c0.1-0.3,0.5-1.5,1.1-3
		c0.2-0.6,0.7-1.7,2-4.3c0.6-1.2,1.3-2.6,2.3-4.5c1.4-2.6,2.8-5.2,4.7-8c0.6-0.9,1.2-1.8,1.9-2.7c0.7-0.9,1.3-1.7,2-2.5
		c0.5-0.6,1-1.2,1.6-1.9c0.4-0.5,0.8-0.9,1.3-1.2c0.5-0.3,1-0.8,1.6-1.3c0.6-0.6,1-1.1,1.3-1.6c0.4-0.4,1.1-1.2,1.4-2.4
		c0.2-0.7,0.2-1.4,0.2-1.9c-0.1-0.4-0.6-1.8-2.1-2.8C675.4,337.3,674.1,337.3,673.7,337.3z"/>
</g>
<path id="N_1_" class="st0" d="M549.9,327.8c0,0-0.2,0-0.3,0c0,0-0.5-0.1-0.5-0.1s-0.6-0.1-0.6-0.1s-0.4-0.1-1,0
	c-0.6,0.1-1.4,0.3-1.7,0.5c-0.2,0.1-0.5,0.3-0.9,0.6c-0.8,0.6-1.1,1.4-1.3,1.7c-0.6,1.3-1.5,2.4-2.1,3.7c-0.5,1-1.3,2.4-2.3,4.1
	c-1,2-2.1,4.1-3.1,6.1l-1.5,3.3c-0.6,1.3-1.2,2.6-1.8,3.9c-0.5,1.2-1,2.4-1.6,3.7c-0.4,0.9-0.7,1.8-1.1,2.7
	c-0.8,1.7-1.6,3.4-2.5,5.1c-1.1,2.4-2.2,4.7-3.3,7.1l-2.3,5.1c-0.8,1.8-1.7,3.8-2.5,6c-0.7,1.9-1.4,3.8-1.9,5.6
	c-0.5,1.6-0.8,3.1-0.9,4.2c-0.2,1.2-0.3,2.5-0.2,4.2c0.1,1.5,0.2,2.7,0.9,4c0.3,0.5,1.1,1.9,1.1,1.9c0.2,0.2,0.9,0.9,2,1.1
	c1,0.2,1.7-0.1,2-0.3c1.3-0.5,3.5-1.6,5.6-3.8c1.5-1.7,2.3-3.3,2.8-4.5c0.9-1.9,1.8-3.8,2.6-5.8l2-4.4l2.2-4.7l1.9-4l1.6-3.4
	l0.2,2.1l0.8,6c0.2,1.2,0.4,2.5,0.7,3.8c0.2,1.2,0.5,2.3,0.8,3.4c0.2,1.1,0.5,2.2,0.8,3.4c0.3,0.9,0.5,1.8,0.8,2.7
	c0.2,0.8,0.5,1.6,0.8,2.5c0.3,0.9,0.7,1.7,1,2.5c0.4,0.7,0.7,1.3,1.2,2c0.4,0.7,0.8,1.3,1.2,1.9c0.7,1,1.5,2,2.4,3
	c0.9,1.1,1.9,2.2,2.8,3.2c0.9,0.9,2,1.9,3.3,3c1.2,1,2.4,1.7,3.5,2.4c1.3,0.8,3,1.7,5,2.5c1.7,0.7,3.3,1.1,4.7,1.3
	c1.7,0.4,3.7,0.7,6,0.8c2.2,0.1,4.2,0,5.8-0.1c2.1-0.2,4.5-0.6,7.2-1.3c2.7-0.7,5-1.5,7-2.3c0.7-0.3,1.7-0.7,2.8-1.2
	c1.4-0.7,2.3-1.3,3.2-1.9c1.4-1,3.5-2.4,6-4.2c2.4-1.7,4.9-3.7,7.5-6c1.6-1.4,3.1-2.8,4.5-4.2c1.6-1.6,3.2-3.2,4.9-5.1
	c1.2-1.3,2.3-2.7,3.4-4c1.6-2,3.3-4.1,4.9-6.3c1.4-1.9,2.7-3.7,3.9-5.5c1.5-2.4,3.1-4.8,4.6-7.4c0.7-1.1,1.3-2.3,2-3.4
	c0.4-0.6,4.2-6.6,5.8-11.4c0.7-2.1,1.1-4.2,1.1-4.2c0.1-0.6,0,0,0.4-3.6c0.1-0.8,0.2-2.3-0.4-3.5c0-0.1-0.1-0.1-0.1-0.2
	c-0.2-0.2-0.8-1.3-2-1.5c-1.1-0.2-2.3,0.4-3,1.4c-1.2,1.4-1.8,2.6-2.3,3.5c-0.4,0.8-0.5,1.3-1.1,2.9c-0.4,1.1-0.9,2.2-1.3,3.3
	c-1.5,2.8-3,5.7-4.5,8.5l-5.2,8.1c-1.6,2.4-3.2,4.9-4.8,7.3c-2,2.7-4.1,5.4-6.1,8.1c-2.3,2.5-4.9,5.1-7.8,7.8
	c-2.5,2.3-5,4.4-7.4,6.3c-2.3,1.7-4.5,3.4-6.8,5c-1.3,0.8-2.8,1.6-4.6,2.4c-1.7,0.7-3.2,1.2-4.6,1.5c-1.6,0.5-3.6,1-5.8,1.2
	c-2.1,0.3-4,0.3-5.6,0.2c-1.1-0.1-2.3-0.2-3.7-0.5c-1.4-0.3-2.6-0.7-3.6-1.1c-1.6-0.6-3.8-1.5-6-3.2c-2.4-1.7-4.1-3.6-5.1-5
	c-1.2-1.6-3-4.3-4.2-7.9c-1-3.2-1.1-6-1.1-7.9c0.2-4.2,0.4-8.5,0.6-12.7l0.6-15.8c0.2-3.8,0.5-7.2,0.6-10.3c0.1-2.2,0.3-4.1,0.1-6
	c0-0.3-0.1-1.4-0.2-2.9c-0.1-1.3,0-1.7-0.1-1.9C556.5,331.3,555.3,329.7,549.9,327.8z"/>
<g id="O_2_">
	<g>
		<path d="M448.3,338.3c-4.1-4.2-8.2-6.5-10.9-7.7c-3.9-1.8-7.3-2.4-9.2-2.8c-3.7-0.7-6.5-0.7-8.9-0.8c-4.8-0.1-8.6,0.5-10.5,0.8
			c-2.2,0.4-3.9,0.8-4.4,0.9c-3.2,0.8-5.6,1.8-6.7,2.2c-1.3,0.5-2.7,1.1-4.3,2.1c-1.6,0.9-3.9,2.5-6.3,5c-1.3-0.5-2.5-0.9-3.4-1
			c-2.1-0.4-3.7-0.4-4.2-0.4c-1,0-1.9,0.2-2.2,0.2c-0.4,0.1-0.7,0.1-1.1,0.2c-0.7,0.2-1.8,0.4-3.3,1.1c-0.3,0.2-1.3,0.6-2.5,1.5
			c-0.5,0.4-1.3,0.9-2.2,1.9c-0.2,0.3-0.9,1-1.7,2.1c-0.5,0.8-1.1,1.9-1.2,1.9c-1,1.8-1.8,3.4-2.3,4.7c-0.6,1.3-1.1,2.4-1.6,4
			c-0.5,1.5-0.8,2.7-0.9,3.5c-0.1,0.4-0.4,1.6-0.6,3.2c-0.3,1.7-0.4,3.1-0.5,4.3c0,0.3-0.1,1.2-0.2,2.4c-0.2,2.4-0.2,4.3-0.2,4.9
			c0,0.5,0,2.5,0.1,5.5c0.1,2.5,0.3,5.9,1,10.3c0.4,2.6,0.8,4.6,1,5.1c0.8,3.6,1.7,6.3,1.9,6.9c0.5,1.4,1.1,3.2,2.2,5.5
			c1.7,3.4,3.4,5.8,3.9,6.6c0.4,0.5,1.7,2.3,3.7,4.4c0.4,0.5,2.6,2.7,5.9,5.2c2.1,1.6,3.9,2.6,4.5,3c1.1,0.7,2.6,1.5,4.7,2.4
			c1.9,0.8,3.4,1.2,4.3,1.5c1.4,0.4,2.4,0.6,3.7,0.9c1.3,0.3,3,0.7,5.3,1c1.4,0.2,2.5,0.3,3.4,0.4c4.9,1.8,10.7,3,17.1,3
			c28.7,0,52.1-23.4,52.1-52.1C473.8,361.7,462.2,346.9,448.3,338.3z M421.7,415.3c-12.6,0-21.6-7.9-22.6-8.8
			c-1.8-1.7-10.9-10.7-10.8-24.5c0.1-15.9,12.5-28.4,24.1-32.1c4.1-1.3,7.6-1.3,8.8-1.3c13.8,0.6,33.7,12.8,33.7,33.4
			C455.1,400.3,440.1,415.3,421.7,415.3z"/>
	</g>
</g>
<path id="L_2_" class="st0" d="M243.9,334c1.6-0.7,3.1-0.5,3.8-0.3c0.9,0.1,3.5,0.7,5.4,2.9c0.4,0.5,1.2,1.5,1.5,2.9
	c0.3,1.5,0,2.7-0.2,3.4c-0.3,0.9-0.4,0.8-2.4,4.4c-0.6,1-1.1,2-1.3,2.3c-0.5,0.8-0.9,1.7-1.1,2c-0.7,1.3-2,3.5-3.2,6.2
	c-0.2,0.4-0.2,1.5-1.4,4.4c-1.1,2.5-1.3,3-1.6,4c-0.5,1.2-0.6,1.7-1.3,3.4c-0.6,1.4-0.8,2.1-1.2,2.9c-0.5,1.2-0.6,1.2-1.6,3.4
	c-1.4,2.9-1.3,2.8-1.8,3.6c-0.9,1.4-1.4,1.6-1.7,2.7c-0.4,1.2-0.3,2.3-0.2,2.8c0.1,0.5,0,0.5-0.7,7.2c-0.5,4.4-0.7,6.8-0.9,9.2
	c-0.4,3.7-0.3,3.1-0.8,8.5c-0.7,7.7-0.7,7-1,10.6c-0.3,3.8-0.3,4.1-0.5,5.6c-0.4,2.1-0.5,4.2-1.1,6.2c-0.1,0.2-0.3,0.9-0.2,1.8
	c0,0.3,0.1,1,0.6,1.6c0.2,0.2,0.6,0.7,1.8,1.1c0.8,0.3,1.6,0.4,3.1,0.4c2.1,0,3.8-0.2,4.2-0.3c1.2-0.2,1.4-0.3,3.2-0.6
	c1.1-0.2,1.9-0.3,2.4-0.4c3.5-0.5,7.6-0.7,8.5-0.7c1.9-0.1,4.7-0.2,8.1-0.2c3,0,4.5,0,6.3,0.2c2.2,0.2,3.1,0.4,5.4,0.4
	c1,0,0.8,0,3.6-0.1c1.5,0,2.8,0,4.6,0c1.5,0,2.7,0,4.1,0.1c3.1,0.1,3,0.1,4.1,0.1c1.8,0,3.1-0.2,4.7-0.3c0.6-0.1,2.5-0.3,4.8-0.6
	c1.3-0.2,2.1-0.4,3.7-0.6c1.4-0.2,2.2-0.2,2.5-0.3c1.3-0.1,1.2,0,2.9-0.1c1.6-0.1,1.8-0.2,2.4,0c0.4,0.1,1.2,0.4,1.8,1.2
	c0.1,0.1,0.6,0.8,0.7,1.7c0,0.2,0.1,1.2-0.5,2.1c-0.2,0.3-0.5,0.6-1.1,1.1c-1.1,0.8-2.2,1-2.9,1.2c-1.9,0.5-1,0.4-4,1.3
	c-2.4,0.7-4.3,1.1-5.4,1.3c-4.4,1-7.3,1.6-11.2,2c-2,0.2-4.3,0.3-8.9,0.5c-2.9,0.1-4.7,0.2-7.1,0.2c-8.9,0.3-8.5,0.4-17.1,0.6
	c-3.6,0.1-7.2,0.3-10.8,0.4c-1.5,0-3,0.1-5.1,0.4c-2.8,0.4-3,0.7-5.1,0.9c-3.2,0.4-5.7-0.1-7.5-0.4c-0.8-0.2-3.2-0.6-6.1-1.8
	c-1.7-0.7-2.8-1.3-5.1-2.6c-1-0.5-1.9-1.1-3-2c-0.7-0.5-1.2-1-1.8-1.7c-0.9-1.1-1.4-2.2-1.7-2.9c-0.5-1.1-0.6-2-0.8-2.7
	c-0.1-0.6-0.3-1.8-0.4-3.2c0-0.9,0.1-1.4,0.5-3.9c0.4-2.3,0.6-3.4,0.7-4.1c0.5-2.4,1.1-4.4,1.6-6.1c0.7-2.1,1.3-3.6,1.6-4.6
	c0.3-0.9,0.9-2.3,1.7-4.1c0.7-1.4,1.2-2.4,2-4c1.5-2.9,1.8-3.3,3-5.7c0.1-0.2,0.6-1.3,1.3-2.7c0.7-1.5,1.1-2.4,1.6-3.5
	c0.4-1,0.3-0.8,1.5-4.4c0.7-2,0.9-2.7,1.2-3.5c0.4-1,0.7-1.7,1-2.3c0.9-2,1.6-3.5,1.7-3.7c2-4.2,5.7-15.9,8.5-24.2
	c0.7-2.2,1.3-4.4,2.1-6.5c0.3-0.9,0.7-2,1-3.6c0.2-1.3,0.2-1.6,0.4-3c0.3-1.7,0.5-2.9,1.1-4.2C241.1,336.6,242,334.9,243.9,334z"/>
<path id="A_2_" d="M154.7,334.1c-0.5,0.1-1.4,0.2-2.3,0.6c-2.4,1.1-7,9.7-6.6,9.1c-1.9,3.5-3.9,7.2-5.8,11.2
	c-1.1,2.4-2.2,4.8-3.2,7.1c-1.2,2.4-3,6-5.3,10.6c-3.9,7.9-4.2,9.1-6.5,13.4c-3.7,7.2-3.7,6.1-8.3,14.8c-2.8,5.4-3.5,7-7.7,14.8
	c-1.7,3.2-2.6,4.9-3.9,7.2c-2.7,4.7-3.2,5-6.5,10.8c-0.5,0.9-1.3,2.1-2.4,3.8c-1,1.4-1.9,2.7-2.9,4c-1.6,2-2.1,2.5-2.7,3.3
	c-0.4,0.5-0.7,0.9-0.8,1.2c-1,1.5-1.9,2.5-2.2,2.9c-1.9,2.5-2.6,6.4-2.3,9.3c0.1,1.2,0.3,1.9,0.6,2.5c0.2,0.5,1.2,2.8,3.1,3.1
	c1.7,0.3,3.2-1.2,4.5-2.4c1.5-1.5,2.2-2.8,3-4.4c1.3-2.5,2.6-5,3.9-7.6c3.3-5.6,6.5-11.2,9.8-16.8c6.5-11.9,12.9-23.8,19.4-35.7
	c3.7-7.4,7.3-14.7,11-22.1l5.1-9.5l-0.3,8.7l-1.1,9.1l-0.7,10.6l-0.5,9.6c0,2.1,0,4.2,0,6.3c0,0.5,0,1,0,1.4c0,0.4-0.1,0.8-0.2,1.2
	c0,0-0.1,0.3-0.3,0.6c-0.5,0.7-4.7,1.8-6.8,2.3c-0.4,0.1-1,0.2-1.7,0.3c-0.2,0-0.4,0.1-0.7,0.1c-1.4,0.1-2.6,0.1-3.4,0
	c-1.2-0.3-2.2-0.5-2.9-0.6c-0.4,0-0.8-0.1-1.3-0.1c-0.7-0.1-1.6,0-2.6,0.4c-0.4,0.2-1.1,0.5-1.8,1.3c-0.1,0.2-2.1,3.7-0.3,6.7
	c0.8,1.3,1.9,2,2.5,2.3c0.5,0.2,1.2,0.4,2.2,0.5c0.9,0.1,1.7,0.1,3.6-0.1c2.1-0.2,3.1-0.3,4.2-0.6c1.2-0.3,2.7-0.7,4.5-1.5
	c0.4-0.2,0.9-0.4,1.5-0.7c0.7-0.3,1.4-0.5,2-0.6c0.2,0,0.4-0.1,0.6-0.1c0,0.7-0.1,1.4-0.1,2.1c-0.1,0.8-0.2,1.6-0.3,2.4
	c-0.2,1.1-0.4,2.1-0.6,3.2l-0.6,4.8l-0.5,4c-0.3,1.3-0.4,2.4-0.5,3.1c-0.1,0.8-0.2,2.2-0.5,3.3c0,0.1-0.1,0.3-0.1,0.5
	c-0.1,0.5-0.2,1.1-0.3,1.7c-0.2,1.7-0.3,3.4,0.6,5c0.1,0.2,1.2,1.9,3.3,2.3c1.6,0.3,2.9-0.4,4-0.9c0.7-0.3,1.6-0.8,2.3-1.7
	c0.2-0.3,0.9-1.2,1.2-4.4c0.1-1.1,0.2-2.6,0.1-4.4c0.1-2.6,0.1-5.1,0.2-7.7l0.4-7.2c0-1.4,0.1-2.8,0.1-4.1c0.1-1,0.2-2,0.2-3
	c0.1-0.7,0.2-1.4,0.3-2.2c0.1-0.4,0.2-0.7,0.3-1.1c0.3-0.1,0.7-0.3,1.2-0.5c1-0.5,1.8-0.8,2.3-1c4.8-1.9,5.1-2,6-2.4
	c1.4-0.6,2.6-1,3.5-1.3c1.1-0.4,3-1,4.9-1.7c0,0,1-0.4,2.1-1.1c0.5-0.3,0.8-0.6,1.1-0.8c0.1-0.1,0.3-0.3,0.5-0.5
	c0.2-0.2,0.4-0.4,0.5-0.6c0.2-0.2,0.6-0.9,1-1.9c0.1-0.4,0.3-0.8,0.3-1.3c0-0.5-0.1-1-0.2-1.3c-0.1-0.2-0.4-1-1.2-1.5
	c-0.7-0.4-1.4-0.4-1.7-0.3c-0.4,0-1.1,0.1-1.8,0.2c-1.6,0.3-2.8,0.8-5,1.7c-4.2,1.8-4.3,1.8-4.8,2c-1,0.3-1,0.3-3.8,1.3
	c-0.8,0.3-1.6,0.5-2.3,0.8c-0.7,0.2-1.5,0.5-2.2,0.7c0-1.1,0.1-2.2,0.1-3.3c0.1-1,0.2-2.1,0.3-3.1c0.3-2,0.5-4,0.8-6.1l0.7-5.8
	l0.9-5.9c0.5-3.3,1-6.6,1.4-9.8c0.2-1.7,0.3-3.5,0.5-5.2c0.1-1.7,0.2-3.5,0.3-5.2c0-0.5,0-1.1,0.1-1.8c0.1-0.4,0.2-0.8,0.3-1.1
	c0.2-0.4,1.7-3,0.6-6.1c-0.8-2.2-2.5-3.4-3.1-3.7c-0.2-0.1-0.4-0.2-0.6-0.3c0.4-0.6,0.7-1.3,1.1-1.9c1.3-1.8,2.6-3.7,3.9-5.5
	c0.3-0.4,0.7-1,0.9-1.7c0.1-0.3,0.2-0.6,0.3-0.9c0.1-0.5,0.3-1.3,0.1-2.3c-0.1-1.2-0.6-2-0.9-2.5c-0.3-0.4-0.9-1-1.8-1.5
	c-0.9-0.5-1.8-0.6-2.2-0.6C155.3,334,155,334,154.7,334.1z"/>
</svg>
